:SAMPLES-PER-SECOND 30
:FULLY-SPECIFIED
:DEGREES
118
root  14.44635617 39.47333388 -9.191667001 -4.253519535 -57.85919952 7.710129738
lfemur  -28.56229591 -0.7610862255 3.124788761
ltibia  -1.491570742e-006 -8.364404493e-007 51.85719299
lfoot  5.521815751e-007 3.705224276 -2.064999819
ltoes  -4.250644065 -19.5611806 -102.515957
rfemur  -21.89769554 6.984940052 0.6804713607
rtibia  -8.727266732e-007 2.533748784e-007 61.19039154
rfoot  -2.316020982e-006 -18.25319672 -14.87299919
rtoes  5.373923086 19.29304026 -105.8922705
lowerback  9.041939735 2.396359921 -5.720910072
upperback  5.444489956 2.516849995 -5.238239765
thorax  0.5945960283 1.116770029 -2.441440105
rclavicle  0 -9.442270133e-015 7.951389973e-016
rhumerus  25.87199783 3.718530655 -75.21949768
rradius  -7.782816926e-012 0.001642658608 140.1100006
rwrist  0.002739921212 0.003270594636 -33.32040024
rthumb  -92.93752616 -24.25625642 -97.11982154
rhand  -7.920061211e-032 -33.2840004 9.303460121
rfingers  -90 -7.125020027 -90
lclavicle  0 -9.442270133e-015 7.951389973e-016
lhumerus  19.89539909 8.283240318 66.98629761
lradius  1.032090125e-011 -0.02429260872 137.7619934
lwrist  1.816137865e-011 1.409039812e-011 22.36459923
lthumb  89.89689403 5.08795885 91.16245106
lhand  -1.496451383e-031 -27.76390076 20.11240005
lfingers  90 7.125020027 -90
lowerneck  4.846380234 7.390110016 -10.18089962
upperneck  34.77640152 10.05239964 -1.567229629
head  10.07849979 2.757999897 1.70855999
119
root  14.56053276 39.26999851 -8.960844776 -4.841040134 -57.82080078 7.927020073
lfemur  -27.45969963 -2.209370136 3.257511139
ltibia  -1.491570742e-006 -8.364404493e-007 50.22029877
lfoot  5.521815751e-007 4.66202116 -3.099929571
ltoes  -4.250644065 -19.5611806 -102.515957
rfemur  -21.33030128 6.855111122 0.5694669485
rtibia  -8.727266732e-007 2.533748784e-007 62.48540115
rfoot  -2.316020982e-006 -18.59609795 -12.32770061
rtoes  5.373923086 19.29304026 -105.8922705
lowerback  9.05782032 2.463210106 -5.531980038
upperback  5.489079952 2.616839886 -5.384870052
thorax  0.6478310227 1.171040058 -2.708479881
rclavicle  0 -9.442270133e-015 7.951389973e-016
rhumerus  25.75040054 4.047999382 -75.12310028
rradius  -7.782816926e-012 0.001642658608 140.3609924
rwrist  0.002739921212 0.003270594636 -32.32630157
rthumb  -92.93752616 -24.25625642 -97.11982154
rhand  -7.920061211e-032 -33.2840004 9.303460121
rfingers  -90 -7.125020027 -90
lclavicle  0 -9.442270133e-015 7.951389973e-016
lhumerus  19.73169899 8.034609795 67.63700104
lradius  1.032090559e-011 -0.02552181482 137.598999
lwrist  1.816137865e-011 1.409039812e-011 22.01000023
lthumb  89.89689403 5.08795885 91.16245106
lhand  -1.496451383e-031 -27.76390076 20.11240005
lfingers  90 7.125020027 -90
lowerneck  4.864600182 7.419909954 -10.27670002
upperneck  34.38420105 10.05619907 -1.421329737
head  9.90447998 2.796600103 1.767490149
120
root  14.66762212 39.04600068 -8.718066328 -5.209599972 -57.69060135 7.930530071
lfemur  -26.38409233 -3.773500204 3.400878429
ltibia  -1.491570742e-006 -8.364404493e-007 48.58108521
lfoot  5.521815751e-007 5.438635349 -4.405299664
ltoes  -4.250644065 -19.5611806 -102.515957
rfemur  -20.62609482 6.75096035 0.5597822666
rtibia  -8.727266732e-007 2.533748784e-007 63.54259109
rfoot  -2.316020982e-006 -18.60239601 -9.898448944
rtoes  5.373923086 19.29304026 -105.8922705
lowerback  9.014900208 2.430299997 -5.334690094
upperback  5.493700027 2.594029903 -5.409160137
thorax  0.6849870086 1.16497004 -2.839600086
rclavicle  0 -9.442270133e-015 7.951389973e-016
rhumerus  25.54050064 4.790229797 -75.0463028
rradius  -7.782816926e-012 0.001642658608 140.6150055
rwrist  0.002739921212 0.003270594636 -31.22139931
rthumb  -92.93752616 -24.25625642 -97.11982154
rhand  -7.920061211e-032 -33.2840004 9.303460121
rfingers  -90 -7.125020027 -90
lclavicle  0 -9.442270133e-015 7.951389973e-016
lhumerus  19.27919769 7.952260017 68.32959747
lradius  1.032088998e-011 -0.02603965439 137.4429932
lwrist  1.816137865e-011 1.409039812e-011 21.62529945
lthumb  89.89689403 5.08795885 91.16245106
lhand  -1.496451383e-031 -27.76390076 20.11240005
lfingers  90 7.125020027 -90
lowerneck  4.811329842 7.521399975 -10.48390007
upperneck  33.92839813 10.15479946 -1.213080287
head  9.706879616 2.875509977 1.871170163
121
root  14.77037715 38.80133441 -8.458577554 -5.30945015 -57.52880096 7.738820076
lfemur  -25.44659424 -5.423900604 3.554887056
ltibia  -1.491570742e-006 -8.364404493e-007 47.10118866
lfoot  5.521815751e-007 6.045164585 -5.196838856
ltoes  -4.250644065 -19.5611806 -102.515957
rfemur  -19.88529396 6.677660465 0.6715613008
rtibia  -8.727266732e-007 2.533748784e-007 64.35899353
rfoot  -2.316020982e-006 -18.1078968 -8.020318985
rtoes  5.373923086 19.29304026 -105.8922705
lowerback  8.774250031 2.449609995 -4.94863987
upperback  5.455709934 2.675189972 -5.371610165
thorax  0.7920560241 1.216539979 -3.012109995
rclavicle  0 -9.442270133e-015 7.951389973e-016
rhumerus  25.10070038 5.415390491 -74.81430054
rradius  -7.782816926e-012 0.001642658608 140.8630066
rwrist  0.002739921212 0.003270594636 -30.0503006
rthumb  -92.93752616 -24.25625642 -97.11982154
rhand  -7.920061211e-032 -33.2840004 9.303460121
rfingers  -90 -7.125020027 -90
lclavicle  0 -9.442270133e-015 7.951389973e-016
lhumerus  18.70219994 7.460010052 69.21080017
lradius  1.032089952e-011 -0.02571962774 137.3240051
lwrist  1.816137865e-011 1.409039812e-011 20.96699905
lthumb  89.89689403 5.08795885 91.16245106
lhand  -1.496451383e-031 -27.76390076 20.11240005
lfingers  90 7.125020027 -90
lowerneck  4.624629974 7.541069984 -10.56529999
upperneck  33.71459961 10.1637001 -0.9573195577
head  9.631230354 2.915499926 1.97815001
